# xmcd
# Copyright (C) 1995-1998 Ti Kan
#
# Track frame offsets:
#       150
#       11832
#       24253
#       37932
#       46011
#       58157
#       64526
#       77225
#       88147
#       97878
#       103694
#
# Disc length: 1691 seconds
#
# Revision: 0
# Processed by: cddbd v1.5.2PL0 Copyright (c) Steve Scherf et al.
# Submitted via: CD-Transfer v1.0
#
DISCID=7d06990b
DTITLE=Blood On The Wall - 
DYEAR=08
DGENRE=
TTITLE0=Hibernation
TTITLE1=Ditch, The
TTITLE2=Liferz
TTITLE3=Lightning Song
TTITLE4=Junkeee... Julieee...
TTITLE5=Gogoo
TTITLE6=Rize
TTITLE7=Sorry, Sorry Sarah
TTITLE8=The X
TTITLE9=Turnaround And Shup Up
TTITLE10=Acid Fight
EXTD=
EXTT0=
EXTT1=
EXTT2=
EXTT3=
EXTT4=
EXTT5=
EXTT6=
EXTT7=
EXTT8=
EXTT9=
EXTT10=
PLAYORDER=
